HIERARCHY
ROOT hip
{
  OFFSET 0 0 0
  CHANNELS 6 Xposition Yposition Zposition Zrotation Yrotation Xrotation
  JOINT abdomen
  {
    OFFSET 0 20.6881 -0.73152
    CHANNELS 3 Zrotation Xrotation Yrotation
    JOINT chest
    {
      OFFSET 0 11.7043 -0.48768
      CHANNELS 3 Zrotation Xrotation Yrotation
      JOINT neck
      {
        OFFSET 0 22.1894 -2.19456
        CHANNELS 3 Zrotation Xrotation Yrotation
        JOINT head
        {
          OFFSET -0.24384 7.07133 1.2192
          CHANNELS 3 Zrotation Xrotation Yrotation
          JOINT leftEye
          {
            OFFSET 4.14528 8.04674 8.04672
            CHANNELS 3 Zrotation Xrotation Yrotation
            End Site
            {
              OFFSET 1 0 0
            }
          }
          JOINT rightEye
          {
            OFFSET -3.6576 8.04674 8.04672
            CHANNELS 3 Zrotation Xrotation Yrotation
            End Site
            {
              OFFSET 1 0 0
            }
          }
        }
      }
      JOINT rCollar
      {
        OFFSET -2.68224 19.2634 -4.8768
        CHANNELS 3 Zrotation Xrotation Yrotation
        JOINT rShldr
        {
          OFFSET -8.77824 -1.95073 1.46304
          CHANNELS 3 Zrotation Xrotation Yrotation
          JOINT rForeArm
          {
            OFFSET -28.1742 -1.7115 0.48768
            CHANNELS 3 Zrotation Xrotation Yrotation
            JOINT rHand
            {
              OFFSET -22.5879 0.773209 7.07136
              CHANNELS 3 Zrotation Xrotation Yrotation
              JOINT rThumb1
              {
                OFFSET -1.2192 -0.487915 3.41376
                CHANNELS 3 Zrotation Xrotation Yrotation
                JOINT rThumb2
                {
                  OFFSET -3.37035 -0.52449 3.41376
                  CHANNELS 3 Zrotation Xrotation Yrotation
                  End Site
                  {
                    OFFSET -1.78271 -1.18214 1.43049
                  }
                }
              }
              JOINT rIndex1
              {
                OFFSET -7.75947 0.938293 5.60832
                CHANNELS 3 Zrotation Xrotation Yrotation
                JOINT rIndex2
                {
                  OFFSET -2.54057 -0.884171 1.56538
                  CHANNELS 3 Zrotation Xrotation Yrotation
                  End Site
                  {
                    OFFSET -1.62519 -0.234802 1.16502
                  }
                }
              }
              JOINT rMid1
              {
                OFFSET -8.24714 1.18213 3.41376
                CHANNELS 3 Zrotation Xrotation Yrotation
                JOINT rMid2
                {
                  OFFSET -3.10165 -0.590103 1.0647
                  CHANNELS 3 Zrotation Xrotation Yrotation
                  End Site
                  {
                    OFFSET -2.48547 -0.328903 0.83742
                  }
                }
              }
              JOINT rRing1
              {
                OFFSET -8.82822 0.546677 1.51678
                CHANNELS 3 Zrotation Xrotation Yrotation
                JOINT rRing2
                {
                  OFFSET -2.60934 -0.819778 -0.0198488
                  CHANNELS 3 Zrotation Xrotation Yrotation
                  End Site
                  {
                    OFFSET -2.33842 -0.294052 0.168128
                  }
                }
              }
              JOINT rPinky1
              {
                OFFSET -8.27202 -0.0477905 -0.4584
                CHANNELS 3 Zrotation Xrotation Yrotation
                JOINT rPinky2
                {
                  OFFSET -1.82734 -0.647385 -0.700984
                  CHANNELS 3 Zrotation Xrotation Yrotation
                  End Site
                  {
                    OFFSET -1.69225 -0.51767 -0.607171
                  }
                }
              }
            }
          }
        }
      }
      JOINT lCollar
      {
        OFFSET 2.68224 19.2634 -4.8768
        CHANNELS 3 Zrotation Xrotation Yrotation
        JOINT lShldr
        {
          OFFSET 8.77824 -1.95073 1.46304
          CHANNELS 3 Zrotation Xrotation Yrotation
          JOINT lForeArm
          {
            OFFSET 28.1742 -1.7115 0.48768
            CHANNELS 3 Zrotation Xrotation Yrotation
            JOINT lHand
            {
              OFFSET 22.5879 0.773209 7.07136
              CHANNELS 3 Zrotation Xrotation Yrotation
              JOINT lThumb1
              {
                OFFSET 1.2192 -0.487915 3.41376
                CHANNELS 3 Zrotation Xrotation Yrotation
                JOINT lThumb2
                {
                  OFFSET 3.37035 -0.52449 3.41376
                  CHANNELS 3 Zrotation Xrotation Yrotation
                  End Site
                  {
                    OFFSET 1.78271 -1.18214 1.43049
                  }
                }
              }
              JOINT lIndex1
              {
                OFFSET 7.75947 0.938293 5.60832
                CHANNELS 3 Zrotation Xrotation Yrotation
                JOINT lIndex2
                {
                  OFFSET 2.54057 -0.884171 1.56538
                  CHANNELS 3 Zrotation Xrotation Yrotation
                  End Site
                  {
                    OFFSET 1.62519 -0.234802 1.16502
                  }
                }
              }
              JOINT lMid1
              {
                OFFSET 8.24714 1.18213 3.41376
                CHANNELS 3 Zrotation Xrotation Yrotation
                JOINT lMid2
                {
                  OFFSET 3.10165 -0.590103 1.0647
                  CHANNELS 3 Zrotation Xrotation Yrotation
                  End Site
                  {
                    OFFSET 2.48547 -0.328903 0.83742
                  }
                }
              }
              JOINT lRing1
              {
                OFFSET 8.82822 0.546677 1.51678
                CHANNELS 3 Zrotation Xrotation Yrotation
                JOINT lRing2
                {
                  OFFSET 2.60934 -0.819778 -0.0198488
                  CHANNELS 3 Zrotation Xrotation Yrotation
                  End Site
                  {
                    OFFSET 2.33842 -0.294052 0.168128
                  }
                }
              }
              JOINT lPinky1
              {
                OFFSET 8.27202 -0.0477905 -0.4584
                CHANNELS 3 Zrotation Xrotation Yrotation
                JOINT lPinky2
                {
                  OFFSET 1.82734 -0.647385 -0.700984
                  CHANNELS 3 Zrotation Xrotation Yrotation
                  End Site
                  {
                    OFFSET 1.69225 -0.51767 -0.607171
                  }
                }
              }
            }
          }
        }
      }
    }
  }
  JOINT rButtock
  {
    OFFSET -8.77824 4.35084 1.2192
    CHANNELS 3 Zrotation Xrotation Yrotation
    JOINT rThigh
    {
      OFFSET 0 -1.70687 -2.19456
      CHANNELS 3 Zrotation Xrotation Yrotation
      JOINT rShin
      {
        OFFSET 0 -36.8199 0.73152
        CHANNELS 3 Zrotation Xrotation Yrotation
        JOINT rFoot
        {
          OFFSET 0.73152 -45.1104 -5.12064
          CHANNELS 3 Zrotation Xrotation Yrotation
          End Site
          {
            OFFSET -1.1221 -3.69964 12.103
          }
        }
      }
    }
  }
  JOINT lButtock
  {
    OFFSET 8.77824 4.35084 1.2192
    CHANNELS 3 Zrotation Xrotation Yrotation
    JOINT lThigh
    {
      OFFSET 0 -1.70687 -2.19456
      CHANNELS 3 Zrotation Xrotation Yrotation
      JOINT lShin
      {
        OFFSET 0 -36.8199 0.73152
        CHANNELS 3 Zrotation Xrotation Yrotation
        JOINT lFoot
        {
          OFFSET -0.73152 -45.1104 -5.12064
          CHANNELS 3 Zrotation Xrotation Yrotation
          End Site
          {
            OFFSET 1.1221 -3.69964 12.103
          }
        }
      }
    }
  }
}
MOTION
Frames:	4
Frame Time:	0.00833333
4.59044 85.1968 -4.04961 0.0 0.0 0.0 0.583966 -0.00303823 0.0166885 0.16117 -0.0046852 0.0279252 -1.64609e-15 0.0 4.34841e-17 -4.89197e-15 3.18055e-15 1.14922e-16 -0.0 0.0 0.0 -0.0 0.0 0.0 -6.96998e-16 1.70831e-17 2.48481e-16 -1.67414e-14 5.59082e-16 7.95139e-16 -3.08116e-13 1.02175e-13 3.18055e-15 -3.54119e-12 -4.11236e-14 6.36111e-14 -8.36104e-12 1.26717e-13 1.62208e-13 -1.44552e-11 2.16278e-13 2.90226e-13 -8.36009e-12 1.26029e-13 1.52667e-13 7.73091 5.47488 0.417314 -8.36232e-12 1.26129e-13 1.65389e-13 2.90554 0.965183 0.102902 -8.36096e-12 1.26427e-13 1.70955e-13 10.2786 0.731801 0.0259123 -8.36943e-12 1.31595e-13 1.81292e-13 2.22167 -0.733487 -0.20892 -9.92721e-16 1.59183e-17 -2.48481e-16 -1.82536e-14 6.4605e-16 -1.98785e-16 -3.108e-13 -7.91163e-14 -1.90833e-14 -3.54479e-12 1.56841e-13 1.04958e-13 -8.3623e-12 1.64055e-13 1.87653e-13 -1.44306e-11 2.79889e-13 3.1567e-13 -8.36605e-12 1.63003e-13 1.97194e-13 -7.73091 5.47488 -0.417314 -8.35845e-12 1.62705e-13 1.74931e-13 -2.90554 0.965183 -0.102902 -8.35898e-12 1.636e-13 1.78111e-13 -10.2786 0.731801 -0.0259123 -8.35611e-12 1.66979e-13 1.62208e-13 -2.22167 -0.733487 0.20892 -2.03217e-16 0.0 -3.88251e-19 0.940036 -4.56521 -0.0787583 -0.00191332 2.71742 -0.00754503 -0.501087 1.84803 0.0947662 2.03217e-16 0.0 3.88251e-19 -0.0507138 -2.31868 0.0217176 0.0081598 -1.35176 0.0697814 0.492733 3.67058 -0.130797
4.25918 84.4782 -5.1003 0.1864 -7.0526 2.8904 -0.28389 0.659795 0.0594712 0.244735 -0.876244 0.0409176 -2.85428 1.7447 -1.71281 4.7357 -3.80296 -2.37268 -0.0 0.0 0.0 -0.0 0.0 0.0 1.29954e-15 -9.58157e-15 1.30864e-14 21.3497 5.88924 0.14203 -3.71199 -1.59687 5.8916 0.0643579 5.63768 0.77858 -2.15801e-10 1.46062e-10 4.78367e-11 -3.72195e-10 2.50386e-10 8.63818e-11 -2.15799e-10 1.46061e-10 4.7828e-11 7.73091 5.47488 0.417314 -2.15802e-10 1.4606e-10 4.78381e-11 2.90554 0.965183 0.102902 -2.15797e-10 1.4606e-10 4.78433e-11 10.2786 0.731801 0.0259123 -2.15809e-10 1.46064e-10 4.78505e-11 2.22167 -0.733487 -0.20892 1.07276e-15 -9.58329e-15 1.26551e-14 -21.9081 0.934809 0.350528 3.05788 -1.21812 -4.94602 -0.00550898 1.65093 -0.231678 -5.48039e-11 -2.49285e-10 -8.73366e-11 -9.50318e-11 -4.31561e-10 -1.50574e-10 -5.48069e-11 -2.49283e-10 -8.73269e-11 -7.73091 5.47488 -0.417314 -5.48e-11 -2.49284e-10 -8.7347e-11 -2.90554 0.965183 -0.102902 -5.48024e-11 -2.49284e-10 -8.73444e-11 -10.2786 0.731801 -0.0259123 -5.47964e-11 -2.49281e-10 -8.73589e-11 -2.22167 -0.733487 0.20892 -2.03217e-16 0.0 -3.88251e-19 0.842433 -5.7141 5.40719 0.00521276 6.62589 0.071176 -0.862066 -1.23379 -4.81138 2.03217e-16 0.0 3.88251e-19 -0.263598 -2.63516 -1.49161 -0.00139814 2.05831 -0.012653 0.820955 0.132854 5.03707
4.27361 84.4777 -5.0874 0.261 -7.0478 2.8313 -1.20048 1.35547 0.102994 0.333636 -1.79747 0.0542206 -5.7618 3.58668 -3.53074 9.40169 -7.79976 -4.91927 -0.0 0.0 0.0 -0.0 0.0 0.0 3.77086e-15 -2.03421e-14 2.73515e-14 43.8875 12.1016 0.296765 -7.27635 -3.22559 12.1271 -0.0376186 11.6225 1.63113 -4.61942e-10 3.26041e-10 8.51772e-11 -7.97005e-10 5.59263e-10 1.5526e-10 -4.6194e-10 3.2604e-10 8.51695e-11 7.73091 5.47488 0.417314 -4.61943e-10 3.26039e-10 8.51768e-11 2.90554 0.965183 0.102902 -4.61934e-10 3.26039e-10 8.51817e-11 10.2786 0.731801 0.0259123 -4.6195e-10 3.26042e-10 8.51856e-11 2.22167 -0.733487 -0.20892 3.61549e-15 -2.03445e-14 2.69881e-14 -45.083 1.92261 0.726821 6.06542 -2.47713 -10.1861 0.00320189 3.38217 -0.47528 -1.18545e-10 -5.40466e-10 -1.86127e-10 -2.05566e-10 -9.35638e-10 -3.20807e-10 -1.18548e-10 -5.40459e-10 -1.86117e-10 -7.73091 5.47488 -0.417314 -1.18541e-10 -5.40462e-10 -1.86135e-10 -2.90554 0.965183 -0.102902 -1.18546e-10 -5.40462e-10 -1.86133e-10 -10.2786 0.731801 -0.0259123 -1.18536e-10 -5.4046e-10 -1.86146e-10 -2.22167 -0.733487 0.20892 -2.03217e-16 0.0 -3.88251e-19 0.979961 -6.843 11.2327 0.000855721 10.7494 0.155989 -1.81547 -4.42855 -10.0266 2.03217e-16 0.0 3.88251e-19 -0.505892 -2.95977 -3.10072 -0.000811775 5.65205 -0.100023 1.85888 -3.53758 10.5313
4.28071 84.4786 -5.07501 0.3001 -7.0469 2.7802 -2.02257 1.98546 0.145112 0.413053 -2.61936 0.0669579 -8.24925 5.21536 -5.15746 13.2489 -11.3299 -7.24426 -0.0 0.0 0.0 -0.0 0.0 0.0 5.29261e-15 -2.87789e-14 3.87622e-14 63.9577 17.6673 0.444821 -10.1655 -4.58837 17.7266 -0.284092 16.9002 2.42942 -6.30681e-10 4.37931e-10 1.43186e-10 -1.08767e-09 7.50727e-10 2.58565e-10 -6.30678e-10 4.3793e-10 1.43179e-10 7.73091 5.47488 0.417314 -6.30682e-10 4.37928e-10 1.43184e-10 2.90554 0.965183 0.102902 -6.30669e-10 4.37928e-10 1.43188e-10 10.2786 0.731801 0.0259123 -6.30687e-10 4.3793e-10 1.43189e-10 2.22167 -0.733487 -0.20892 5.20373e-15 -2.87817e-14 3.84621e-14 -65.7588 2.80401 1.05271 8.54954 -3.54559 -14.8638 0.0236533 4.95245 -0.697349 -1.47687e-10 -7.48184e-10 -2.62385e-10 -2.56234e-10 -1.29524e-09 -4.52355e-10 -1.47689e-10 -7.48175e-10 -2.62375e-10 -7.73091 5.47488 -0.417314 -1.47683e-10 -7.48178e-10 -2.62391e-10 -2.90554 0.965183 -0.102902 -1.47689e-10 -7.48178e-10 -2.62389e-10 -10.2786 0.731801 -0.0259123 -1.47677e-10 -7.48178e-10 -2.62401e-10 -2.22167 -0.733487 0.20892 -2.03217e-16 0.0 -3.88251e-19 1.29854 -7.76093 16.4527 -0.0136911 14.4427 0.234589 -3.15893 -7.1693 -14.738 2.03217e-16 0.0 3.88251e-19 -0.739498 -3.26063 -4.52083 0.00913577 8.87839 -0.179611 3.37768 -6.69158 15.4803
